<?xml version="1.0" standalone="no"?>
<!DOCTYPE svg PUBLIC "-//W3C//DTD SVG 20010904//EN"
 "http://www.w3.org/TR/2001/REC-SVG-20010904/DTD/svg10.dtd">
<svg version="1.0" xmlns="http://www.w3.org/2000/svg"
 width="350.000000pt" height="262.000000pt" viewBox="0 0 350.000000 262.000000"
 preserveAspectRatio="xMidYMid meet">
<metadata>
Created by potrace 1.16, written by Peter Selinger 2001-2019
</metadata>
<g transform="translate(0.000000,262.000000) scale(0.100000,-0.100000)"
fill="#000000" stroke="none">
<path d="M1160 1756 c0 -8 -10 -13 -25 -13 -14 0 -25 4 -25 10 0 7 -4 7 -12
-1 -15 -15 -98 -16 -98 -2 0 7 -6 7 -20 0 -15 -8 -20 -8 -20 2 0 9 -3 9 -10
-2 -8 -13 -53 -16 -282 -19 -150 -2 -289 -5 -308 -6 -19 -1 -109 -3 -200 -4
-111 -1 -160 -4 -150 -11 10 -6 11 -10 3 -10 -8 0 -13 -13 -13 -32 0 -19 4
-28 8 -21 5 8 89 13 282 18 151 3 322 10 380 15 115 10 512 21 468 14 -58 -11
-24 -19 64 -16 93 2 93 2 69 -16 -13 -11 -21 -24 -18 -29 4 -5 -17 -20 -46
-32 -29 -13 -65 -29 -82 -37 -39 -18 -181 -43 -208 -36 -14 3 -18 1 -13 -6 9
-16 -16 -16 -32 0 -9 9 -13 7 -18 -5 -3 -9 -13 -17 -21 -17 -8 0 -12 4 -9 8 2
4 -4 8 -15 8 -13 0 -18 -5 -14 -14 4 -10 0 -12 -11 -8 -25 9 -119 -5 -102 -15
8 -5 -15 -8 -54 -6 -38 2 -68 0 -68 -5 0 -4 14 -8 30 -8 31 0 31 0 29 -51 -2
-27 -6 -52 -11 -55 -4 -3 -8 1 -8 8 0 8 -5 6 -11 -5 -5 -9 -28 -27 -51 -38
-34 -17 -40 -18 -35 -5 7 19 -9 22 -16 4 -4 -10 -8 -10 -15 1 -8 11 -12 10
-21 -6 -5 -11 -7 -24 -3 -29 4 -4 -5 0 -20 9 -27 17 -28 17 -34 -8 -7 -28 -19
-32 -28 -9 -3 8 -11 12 -16 9 -15 -9 -62 3 -56 14 3 5 -3 16 -14 26 -15 14
-20 15 -20 4 -1 -10 -5 -8 -15 5 -14 19 -15 19 -35 1 -11 -10 -20 -25 -20 -32
0 -8 -6 -13 -12 -11 -7 3 -13 12 -13 21 0 9 -4 17 -10 16 -5 0 -9 -10 -7 -21
2 -21 1 -20 -19 3 -18 20 -18 24 -5 27 17 4 23 32 7 32 -12 0 -21 -14 -26 -41
-9 -47 -29 -36 -29 16 0 42 -11 46 -22 8 -5 -20 -8 -23 -11 -11 -2 9 1 26 7
37 9 17 8 21 -5 21 -9 0 -13 -4 -10 -10 3 -5 -1 -10 -10 -10 -10 0 -13 5 -9
12 4 7 3 8 -4 4 -9 -5 -12 -187 -12 -702 l0 -694 1750 0 1750 0 0 114 c0 82
-4 116 -12 119 -10 4 -10 6 0 6 6 1 12 10 12 20 0 11 -6 22 -12 24 -10 4 -10
6 0 6 9 1 12 154 12 731 l0 730 -358 1 c-196 1 -361 1 -367 -1 -5 -1 -63 -1
-130 0 -66 1 -127 2 -135 1 -19 0 -513 0 -810 0 -124 0 -284 -3 -357 -7 -114
-6 -135 -5 -157 10 -21 13 -26 14 -26 2z m1595 -127 c176 1 337 0 358 -4 45
-9 49 -33 7 -41 -16 -4 -30 -11 -30 -16 0 -5 -4 -7 -9 -4 -19 12 -472 25 -464
14 2 -5 -34 -8 -81 -8 -85 0 -86 0 -86 -25 0 -18 -4 -23 -15 -19 -11 5 -15 -1
-15 -20 0 -25 19 -38 21 -13 0 10 2 10 6 0 3 -8 23 -13 49 -13 28 0 44 5 45
13 0 10 2 10 6 0 3 -8 25 -13 61 -13 l55 0 -21 23 c-12 13 -22 31 -22 41 0 17
8 18 113 12 61 -4 135 -9 162 -11 28 -2 97 -7 154 -10 69 -5 109 -12 118 -21
17 -17 55 -18 71 -2 9 9 16 8 30 -5 10 -9 32 -22 49 -28 17 -6 34 -17 37 -26
10 -24 -4 -30 -19 -10 -8 11 -28 20 -49 21 -20 2 -39 5 -42 8 -3 4 -18 2 -34
-2 -20 -6 -32 -4 -40 5 -14 17 -80 25 -103 13 -12 -6 -30 -5 -50 2 -22 7 -33
7 -35 0 -2 -5 -8 -10 -13 -10 -6 0 -8 4 -5 9 9 13 -87 19 -103 7 -8 -6 -16
-10 -18 -8 -10 7 -33 0 -28 -9 4 -6 12 -8 19 -6 7 3 12 -3 13 -13 1 -13 -5
-16 -25 -13 -27 4 -27 4 8 -26 l35 -31 -60 5 c-49 4 -64 9 -83 31 -26 29 -33
31 -219 33 -81 0 -133 5 -133 11 0 6 6 10 14 10 15 0 32 37 22 47 -3 4 -14 -1
-25 -11 -14 -13 -28 -15 -60 -10 -23 4 -46 2 -53 -3 -17 -13 -76 -15 -83 -2
-7 10 -48 12 -58 3 -12 -12 68 -45 111 -47 41 -2 49 -6 35 -20 -3 -4 -12 -2
-19 4 -11 9 -16 6 -22 -11 -7 -19 -9 -20 -21 -6 -8 9 -19 16 -27 16 -7 0 -25
11 -40 25 -23 22 -36 25 -98 25 -121 1 -301 12 -306 19 -8 9 -66 11 -321 8
-92 -1 -165 1 -162 6 2 4 10 7 18 7 8 0 17 5 21 12 5 8 -3 10 -27 6 -19 -2
-47 -2 -64 2 -30 6 -29 7 35 41 l65 34 145 0 c290 0 534 -16 620 -40 8 -2 97
-7 198 -11 137 -5 182 -3 182 6 0 8 19 10 70 6 46 -4 70 -2 70 5 0 5 -5 7 -10
4 -6 -4 -19 -3 -28 1 -9 4 -39 6 -67 5 -41 -1 -52 2 -63 20 -11 17 -11 20 0
13 7 -5 157 -7 333 -5z m-1586 -305 c3 -2 7 -96 9 -209 4 -197 4 -205 -15
-205 -27 0 -255 30 -276 36 -12 4 -17 14 -15 34 1 16 6 26 11 23 5 -3 7 -14 4
-24 -3 -11 -2 -17 1 -15 4 2 54 -2 112 -10 149 -19 150 -19 150 11 0 17 -6 26
-22 29 -23 5 -208 26 -227 26 -6 0 -9 20 -8 46 l2 45 40 -5 c22 -3 79 -8 128
-12 l87 -7 0 26 c0 30 -15 37 -88 38 -31 1 -82 4 -112 7 -53 7 -55 8 -55 37 0
17 -4 36 -9 44 -7 11 13 12 123 6 l131 -7 0 26 c0 14 -6 26 -12 27 -154 7
-239 18 -254 34 -17 17 -12 17 136 10 85 -4 157 -9 159 -11z m506 -4 c367 -13
537 -22 531 -27 -3 -3 -122 0 -266 7 -200 9 -265 9 -275 0 -11 -9 -62 -10
-192 -5 -191 7 -240 14 -188 26 44 10 92 10 390 -1z m423 -64 c145 -8 266 -17
269 -20 4 -3 -1 -6 -9 -6 -9 0 -18 -7 -22 -15 -3 -8 -2 -15 3 -15 10 0 9 -161
-2 -177 -4 -6 -3 -14 2 -17 11 -7 11 -56 0 -56 -5 0 -9 13 -9 30 0 36 12 34
-300 56 -129 9 -253 20 -275 24 l-40 8 34 1 c30 1 33 4 29 26 -3 13 -2 22 2
20 4 -3 15 4 25 15 18 20 17 20 -20 20 -21 0 -36 3 -32 6 6 6 473 -12 540 -21
37 -5 37 -5 37 30 0 34 -1 35 -42 35 -24 1 -68 3 -98 5 -30 3 -147 9 -260 16
-113 6 -206 12 -208 14 -2 1 14 6 35 11 l38 8 -40 6 c-37 7 -35 7 20 8 33 1
178 -5 323 -12z m-48 -286 c146 -12 272 -25 280 -29 20 -11 21 -98 2 -106 -12
-4 -320 21 -525 44 -74 8 -115 21 -68 21 18 0 20 4 15 25 -4 18 -2 25 8 25 8
0 15 7 15 15 0 9 -6 14 -12 11 -7 -2 -18 0 -26 5 -21 13 13 12 311 -11z
m-1431 -43 c-9 -8 -220 -77 -234 -77 -23 0 -18 -19 8 -24 12 -3 78 -12 147
-21 68 -9 126 -18 129 -21 24 -24 -100 -11 -424 42 -80 13 -95 19 -76 25 14 6
49 5 87 -2 69 -12 100 -7 88 13 -5 10 -4 10 5 2 12 -11 41 -4 211 55 47 16 74
19 59 8z m1729 -132 c0 -14 -4 -28 -9 -31 -5 -3 -9 -10 -9 -15 0 -6 4 -8 9 -5
10 7 7 -66 -3 -83 -4 -6 -4 -11 1 -11 4 0 8 -18 9 -40 0 -22 -3 -40 -8 -40 -4
0 -8 18 -8 40 0 25 -5 40 -12 40 -7 0 -107 11 -223 25 -115 14 -236 28 -268
31 -35 4 -53 10 -46 15 7 4 17 5 21 3 4 -3 8 0 8 6 0 6 -8 10 -17 8 -12 -2
-18 3 -17 15 1 9 -5 17 -12 17 -8 0 -18 8 -21 18 -4 9 -11 21 -17 25 -6 5 18
6 54 3 157 -13 497 -46 523 -51 25 -4 27 -2 27 31 0 19 4 33 9 30 5 -3 9 -17
9 -31z m-1084 -44 c16 -1 17 -3 5 -18 -13 -15 -12 -15 9 -4 12 6 22 8 22 4 0
-4 5 -1 10 7 8 12 11 13 19 1 5 -8 16 -11 30 -6 16 5 23 1 30 -17 5 -13 19
-33 31 -46 11 -12 19 -26 15 -31 -3 -5 3 -7 14 -4 17 4 15 8 -15 38 -18 18
-30 36 -27 39 4 3 13 -3 20 -14 8 -11 19 -18 24 -15 5 3 6 0 3 -8 -6 -18 56
-33 66 -16 5 7 10 4 14 -7 4 -10 1 -21 -6 -25 -8 -5 -4 -7 11 -6 14 1 34 17
54 44 28 40 48 60 30 30 -19 -31 -156 -217 -162 -222 -4 -2 -41 2 -82 9 -41 8
-66 14 -56 15 9 1 17 8 17 17 0 8 -4 12 -10 9 -5 -3 -10 -1 -10 5 0 6 -5 8
-10 5 -10 -6 -134 9 -174 21 -15 5 -18 3 -13 -10 8 -19 10 -19 -73 -5 -36 6
-71 12 -77 12 -9 0 -10 4 -2 14 13 15 23 18 14 3 -14 -23 11 -6 74 48 36 32
85 73 109 91 23 18 40 36 38 40 -3 4 5 6 17 5 12 -1 30 -3 41 -3z m717 -126
c21 -4 53 -8 71 -10 226 -23 298 -39 276 -61 -4 -4 -54 -2 -110 5 -125 15
-150 20 -142 32 3 5 0 9 -5 9 -6 0 -11 -5 -11 -10 0 -15 -90 -2 -175 25 l-70
23 64 -4 c36 -1 82 -6 102 -9z"/>
</g>
</svg>
